<svg xmlns="http://www.w3.org/2000/svg" viewBox="0 0 320 150" fill="none"><title>A série para no último dado conhecido</title><path fill="#e2d8e8" d="M20 78C25.33 77 41.33 71.83 52 72C62.67 72.17 73.33 79.67 84 79C94.67 78.33 105.33 69 116 68C126.67 67 137.33 74 148 73C158.67 72 174.67 63.83 180 62L180 102C174.67 103.83 158.67 112 148 113C137.33 114 126.67 107 116 108C105.33 109 94.67 118.33 84 119C73.33 119.67 62.67 112.17 52 112C41.33 111.83 25.33 117 20 118Z"/><path stroke="#756580" stroke-width="1.5" d="M20 78C25.33 77 41.33 71.83 52 72C62.67 72.17 73.33 79.67 84 79C94.67 78.33 105.33 69 116 68C126.67 67 137.33 74 148 73C158.67 72 174.67 63.83 180 62"/><path stroke="#756580" stroke-width="1.5" d="M20 118C25.33 117 41.33 111.83 52 112C62.67 112.17 73.33 119.67 84 119C94.67 118.33 105.33 109 116 108C126.67 107 137.33 114 148 113C158.67 112 174.67 103.83 180 102"/><path stroke="#5a3a66" stroke-width="3.5" stroke-linecap="round" d="M20 98C25.33 97 41.33 91.83 52 92C62.67 92.17 73.33 99.67 84 99C94.67 98.33 105.33 89 116 88C126.67 87 137.33 94 148 93C158.67 92 174.67 83.83 180 82"/><path stroke="#8e8598" stroke-width="1.5" stroke-dasharray="4 7" d="M180 26V142"/><path stroke="#8e8598" stroke-width="2.5" stroke-linecap="round" stroke-dasharray="2 11" d="M192 82H302"/><circle cx="180" cy="82" r="7" fill="#fff" stroke="#5a3a66" stroke-width="3.5"/><path stroke="#8e8598" stroke-width="2" stroke-linecap="round" d="M16 134H304"/></svg>
